<?xml version="1.0" encoding="UTF-8"?>
<svg width="200px" height="200px" viewBox="0 0 200 200" version="1.1" xmlns="http://www.w3.org/2000/svg" xmlns:xlink="http://www.w3.org/1999/xlink">
    <!-- Generator: Sketch 48.1 (47250) - http://www.bohemiancoding.com/sketch -->
    <title>Letter</title>
    <desc>Created with Sketch.</desc>
    <defs>
        <path d="M31.2031493,13.009856 C109.512043,12.3366187 156.990665,12 173.639015,12 C187.857797,12 188,21.0215117 188,21.719 C188,75.146 188,128.573 188,182 L188,182 C188,186.418278 184.418278,190 180,190 C129.427718,190 78.8554368,190 28.2831552,190 C15.2587744,190 14,185.711829 14,171.948486 C14,154.601089 17.0979225,104.091191 23.2937675,20.4187921 L23.2937624,20.4187917 C23.6011602,16.267509 27.0406547,13.0456418 31.2031493,13.009856 Z" id="path-1"></path>
        <filter x="-0.6%" y="-0.6%" width="102.3%" height="102.2%" filterUnits="objectBoundingBox" id="filter-2">
            <feOffset dx="2" dy="2" in="SourceAlpha" result="shadowOffsetOuter1"></feOffset>
            <feColorMatrix values="0 0 0 0 0.00996492347   0 0 0 0 0.00996492347   0 0 0 0 0.00996492347  0 0 0 0.249348958 0" type="matrix" in="shadowOffsetOuter1"></feColorMatrix>
        </filter>
    </defs>
    <g id="Symbol-C" stroke="none" stroke-width="1" fill="none" fill-rule="evenodd">
        <g id="Letter">
            <g id="Rectangle-Copy">
                <use fill="black" fill-opacity="1" filter="url(#filter-2)" xlink:href="#path-1"></use>
                <use fill="#DA8D63" fill-rule="evenodd" xlink:href="#path-1"></use>
            </g>
            <rect id="Rectangle" fill="#FFA777" x="14" y="12" width="169" height="171" rx="8"></rect>
            <path d="M150.7,132.3 C145.999977,137.700027 140.200035,141.974984 133.3,145.125 C126.399966,148.275016 118.450045,149.85 109.45,149.85 C101.249959,149.85 93.6750347,148.500013 86.725,145.8 C79.7749652,143.099986 73.7500255,139.275025 68.65,134.325 C63.5499745,129.374975 59.5500145,123.450035 56.65,116.55 C53.7499855,109.649966 52.3,102.050042 52.3,93.75 C52.3,85.2499575 53.7749853,77.5500345 56.725,70.65 C59.6750148,63.7499655 63.749974,57.8750242 68.95,53.025 C74.150026,48.1749757 80.249965,44.450013 87.25,41.85 C94.250035,39.249987 101.799959,37.95 109.9,37.95 C117.400037,37.95 124.774964,39.2749867 132.025,41.925 C139.275036,44.5750133 145.149978,48.4499745 149.65,53.55 L132.25,70.95 C129.849988,67.6499835 126.70002,65.200008 122.8,63.6 C118.89998,61.999992 114.90002,61.2 110.8,61.2 C106.299978,61.2 102.175019,62.0249917 98.425,63.675 C94.6749813,65.3250083 91.4500135,67.5999855 88.75,70.5 C86.0499865,73.4000145 83.9500075,76.8249803 82.45,80.775 C80.9499925,84.7250198 80.2,89.0499765 80.2,93.75 C80.2,98.550024 80.9499925,102.94998 82.45,106.95 C83.9500075,110.95002 86.0249868,114.374986 88.675,117.225 C91.3250133,120.075014 94.4999815,122.299992 98.2,123.9 C101.900019,125.500008 105.949978,126.3 110.35,126.3 C115.450026,126.3 119.899981,125.30001 123.7,123.3 C127.500019,121.29999 130.549988,118.700016 132.85,115.5 L150.7,132.3 Z" id="C" fill="#323232"></path>
            <path d="M168.02,168.438 C168.02,169.482005 167.808502,170.386496 167.3855,171.1515 C166.962498,171.916504 166.409003,172.546498 165.725,173.0415 C165.040997,173.536502 164.271504,173.905499 163.4165,174.1485 C162.561496,174.391501 161.693004,174.513 160.811,174.513 C159.946996,174.513 159.105504,174.414001 158.2865,174.216 C157.467496,174.017999 156.720503,173.716502 156.0455,173.3115 C155.370497,172.906498 154.781003,172.384503 154.277,171.7455 C153.772997,171.106497 153.395001,170.337005 153.143,169.437 L157.355,168.33 C157.535001,168.960003 157.903997,169.513498 158.462,169.9905 C159.020003,170.467502 159.730996,170.706 160.595,170.706 C160.919002,170.706 161.247498,170.661 161.5805,170.571 C161.913502,170.481 162.210499,170.341501 162.4715,170.1525 C162.732501,169.963499 162.948499,169.716002 163.1195,169.41 C163.290501,169.103998 163.376,168.726002 163.376,168.276 C163.376,167.789998 163.263501,167.385002 163.0385,167.061 C162.813499,166.736998 162.516502,166.480501 162.1475,166.2915 C161.778498,166.102499 161.360002,165.9675 160.892,165.8865 C160.423998,165.8055 159.956002,165.765 159.488,165.765 L158.273,165.765 L158.273,162.444 L159.596,162.444 C160.028002,162.444 160.441998,162.4125 160.838,162.3495 C161.234002,162.2865 161.589498,162.169501 161.9045,161.9985 C162.219502,161.827499 162.471499,161.598001 162.6605,161.31 C162.849501,161.021999 162.944,160.644002 162.944,160.176 C162.944,159.491997 162.701002,158.970002 162.215,158.61 C161.728998,158.249998 161.171003,158.07 160.541,158.07 C159.892997,158.07 159.330502,158.263498 158.8535,158.6505 C158.376498,159.037502 158.066001,159.554997 157.922,160.203 L153.71,159.231 C153.944001,158.420996 154.294998,157.714503 154.763,157.1115 C155.231002,156.508497 155.784497,156.004502 156.4235,155.5995 C157.062503,155.194498 157.759996,154.888501 158.516,154.6815 C159.272004,154.474499 160.045996,154.371 160.838,154.371 C161.684004,154.371 162.507496,154.478999 163.3085,154.695 C164.109504,154.911001 164.824997,155.243998 165.455,155.694 C166.085003,156.144002 166.593498,156.706497 166.9805,157.3815 C167.367502,158.056503 167.561,158.852995 167.561,159.771 C167.561,160.833005 167.259503,161.728496 166.6565,162.4575 C166.053497,163.186504 165.284005,163.676999 164.348,163.929 L164.348,164.01 C164.888003,164.136001 165.382998,164.338499 165.833,164.6175 C166.283002,164.896501 166.669998,165.229498 166.994,165.6165 C167.318002,166.003502 167.569999,166.435498 167.75,166.9125 C167.930001,167.389502 168.02,167.897997 168.02,168.438 Z" id="3" fill="#323232"></path>
        </g>
    </g>
</svg>