<?xml version="1.0" encoding="UTF-8"?>
<svg width="200px" height="200px" viewBox="0 0 200 200" version="1.1" xmlns="http://www.w3.org/2000/svg" xmlns:xlink="http://www.w3.org/1999/xlink">
    <!-- Generator: Sketch 48.1 (47250) - http://www.bohemiancoding.com/sketch -->
    <title>Letter</title>
    <desc>Created with Sketch.</desc>
    <defs>
        <path d="M31.2031493,13.009856 C109.512043,12.3366187 156.990665,12 173.639015,12 C187.857797,12 188,21.0215117 188,21.719 C188,75.146 188,128.573 188,182 L188,182 C188,186.418278 184.418278,190 180,190 C129.427718,190 78.8554368,190 28.2831552,190 C15.2587744,190 14,185.711829 14,171.948486 C14,154.601089 17.0979225,104.091191 23.2937675,20.4187921 L23.2937624,20.4187917 C23.6011602,16.267509 27.0406547,13.0456418 31.2031493,13.009856 Z" id="path-1"></path>
        <filter x="-0.6%" y="-0.6%" width="102.3%" height="102.2%" filterUnits="objectBoundingBox" id="filter-2">
            <feOffset dx="2" dy="2" in="SourceAlpha" result="shadowOffsetOuter1"></feOffset>
            <feColorMatrix values="0 0 0 0 0.00996492347   0 0 0 0 0.00996492347   0 0 0 0 0.00996492347  0 0 0 0.249348958 0" type="matrix" in="shadowOffsetOuter1"></feColorMatrix>
        </filter>
    </defs>
    <g id="Symbol-D" stroke="none" stroke-width="1" fill="none" fill-rule="evenodd">
        <g id="Letter">
            <g id="Rectangle-Copy">
                <use fill="black" fill-opacity="1" filter="url(#filter-2)" xlink:href="#path-1"></use>
                <use fill="#DA8D63" fill-rule="evenodd" xlink:href="#path-1"></use>
            </g>
            <rect id="Rectangle" fill="#FFA777" x="14" y="12" width="169" height="171" rx="8"></rect>
            <path d="M150.55,93.6 C150.55,102.900047 148.825017,110.924966 145.375,117.675 C141.924983,124.425034 137.375028,129.974978 131.725,134.325 C126.074972,138.675022 119.700035,141.87499 112.6,143.925 C105.499965,145.97501 98.3000365,147 91,147 L51.4,147 L51.4,40.8 L89.8,40.8 C97.3000375,40.8 104.699963,41.6749913 112,43.425 C119.300037,45.1750088 125.799972,48.0749798 131.5,52.125 C137.200029,56.1750203 141.799982,61.599966 145.3,68.4 C148.800018,75.200034 150.55,83.59995 150.55,93.6 Z M123.85,93.6 C123.85,87.59997 122.87501,82.6250197 120.925,78.675 C118.97499,74.7249803 116.375016,71.5750118 113.125,69.225 C109.874984,66.8749883 106.175021,65.200005 102.025,64.2 C97.8749793,63.199995 93.600022,62.7 89.2,62.7 L76.45,62.7 L76.45,124.8 L88.6,124.8 C93.200023,124.8 97.6249787,124.275005 101.875,123.225 C106.125021,122.174995 109.874984,120.450012 113.125,118.05 C116.375016,115.649988 118.97499,112.45002 120.925,108.45 C122.87501,104.44998 123.85,99.5000295 123.85,93.6 Z" id="D" fill="#323232"></path>
            <path d="M154.115,174 L154.115,170.22 L161.567,163.47 C162.035002,163.019998 162.412999,162.561002 162.701,162.093 C162.989001,161.624998 163.133,161.103003 163.133,160.527 C163.133,159.842997 162.917002,159.289502 162.485,158.8665 C162.052998,158.443498 161.477004,158.232 160.757,158.232 C160.000996,158.232 159.384502,158.497497 158.9075,159.0285 C158.430498,159.559503 158.147,160.256996 158.057,161.121 L153.71,160.527 C153.818001,159.554995 154.083498,158.691004 154.5065,157.935 C154.929502,157.178996 155.464997,156.535503 156.113,156.0045 C156.761003,155.473497 157.503496,155.068501 158.3405,154.7895 C159.177504,154.510499 160.063995,154.371 161,154.371 C161.882004,154.371 162.736996,154.487999 163.565,154.722 C164.393004,154.956001 165.130997,155.315998 165.779,155.802 C166.427003,156.288002 166.944498,156.899996 167.3315,157.638 C167.718502,158.376004 167.912,159.239995 167.912,160.23 C167.912,160.914003 167.822001,161.530497 167.642,162.0795 C167.461999,162.628503 167.214502,163.136998 166.8995,163.605 C166.584498,164.073002 166.224502,164.509498 165.8195,164.9145 C165.414498,165.319502 164.996002,165.719998 164.564,166.116 L160.136,170.058 L167.939,170.058 L167.939,174 L154.115,174 Z" id="2" fill="#323232"></path>
        </g>
    </g>
</svg>