<?xml version="1.0" encoding="UTF-8"?>
<svg width="200px" height="200px" viewBox="0 0 200 200" version="1.1" xmlns="http://www.w3.org/2000/svg" xmlns:xlink="http://www.w3.org/1999/xlink">
    <!-- Generator: Sketch 48.1 (47250) - http://www.bohemiancoding.com/sketch -->
    <title>Letter</title>
    <desc>Created with Sketch.</desc>
    <defs>
        <path d="M31.2031493,13.009856 C109.512043,12.3366187 156.990665,12 173.639015,12 C187.857797,12 188,21.0215117 188,21.719 C188,75.146 188,128.573 188,182 L188,182 C188,186.418278 184.418278,190 180,190 C129.427718,190 78.8554368,190 28.2831552,190 C15.2587744,190 14,185.711829 14,171.948486 C14,154.601089 17.0979225,104.091191 23.2937675,20.4187921 L23.2937624,20.4187917 C23.6011602,16.267509 27.0406547,13.0456418 31.2031493,13.009856 Z" id="path-1"></path>
        <filter x="-0.6%" y="-0.6%" width="102.3%" height="102.2%" filterUnits="objectBoundingBox" id="filter-2">
            <feOffset dx="2" dy="2" in="SourceAlpha" result="shadowOffsetOuter1"></feOffset>
            <feColorMatrix values="0 0 0 0 0.00996492347   0 0 0 0 0.00996492347   0 0 0 0 0.00996492347  0 0 0 0.249348958 0" type="matrix" in="shadowOffsetOuter1"></feColorMatrix>
        </filter>
    </defs>
    <g id="Symbol-G" stroke="none" stroke-width="1" fill="none" fill-rule="evenodd">
        <g id="Letter">
            <g id="Rectangle-Copy">
                <use fill="black" fill-opacity="1" filter="url(#filter-2)" xlink:href="#path-1"></use>
                <use fill="#DA8D63" fill-rule="evenodd" xlink:href="#path-1"></use>
            </g>
            <rect id="Rectangle" fill="#FFA777" x="14" y="12" width="169" height="171" rx="8"></rect>
            <path d="M146.125,140.55 C140.924974,143.250013 134.850035,145.449992 127.9,147.15 C120.949965,148.850009 113.375041,149.7 105.175,149.7 C96.6749575,149.7 88.8500358,148.350013 81.7,145.65 C74.5499643,142.949986 68.4000257,139.150025 63.25,134.25 C58.0999743,129.349975 54.0750145,123.475034 51.175,116.625 C48.2749855,109.774966 46.825,102.150042 46.825,93.75 C46.825,85.2499575 48.2999852,77.5500345 51.25,70.65 C54.2000148,63.7499655 58.274974,57.8750242 63.475,53.025 C68.675026,48.1749757 74.774965,44.450013 81.775,41.85 C88.775035,39.249987 96.3249595,37.95 104.425,37.95 C112.825042,37.95 120.624964,39.2249872 127.825,41.775 C135.025036,44.3250128 140.874977,47.7499785 145.375,52.05 L129.175,70.5 C126.674988,67.5999855 123.375021,65.2250092 119.275,63.375 C115.17498,61.5249908 110.525026,60.6 105.325,60.6 C100.824977,60.6 96.675019,61.4249918 92.875,63.075 C89.074981,64.7250083 85.775014,67.0249853 82.975,69.975 C80.174986,72.9250148 78.0000078,76.4249798 76.45,80.475 C74.8999922,84.5250203 74.125,88.949976 74.125,93.75 C74.125,98.6500245 74.824993,103.14998 76.225,107.25 C77.625007,111.35002 79.6999862,114.874985 82.45,117.825 C85.2000137,120.775015 88.5999798,123.074992 92.65,124.725 C96.7000202,126.375008 101.324974,127.2 106.525,127.2 C109.525015,127.2 112.374987,126.975002 115.075,126.525 C117.775014,126.074998 120.274988,125.350005 122.575,124.35 L122.575,105 L102.325,105 L102.325,84.3 L146.125,84.3 L146.125,140.55 Z" id="G" fill="#323232"></path>
            <path d="M154.115,174 L154.115,170.22 L161.567,163.47 C162.035002,163.019998 162.412999,162.561002 162.701,162.093 C162.989001,161.624998 163.133,161.103003 163.133,160.527 C163.133,159.842997 162.917002,159.289502 162.485,158.8665 C162.052998,158.443498 161.477004,158.232 160.757,158.232 C160.000996,158.232 159.384502,158.497497 158.9075,159.0285 C158.430498,159.559503 158.147,160.256996 158.057,161.121 L153.71,160.527 C153.818001,159.554995 154.083498,158.691004 154.5065,157.935 C154.929502,157.178996 155.464997,156.535503 156.113,156.0045 C156.761003,155.473497 157.503496,155.068501 158.3405,154.7895 C159.177504,154.510499 160.063995,154.371 161,154.371 C161.882004,154.371 162.736996,154.487999 163.565,154.722 C164.393004,154.956001 165.130997,155.315998 165.779,155.802 C166.427003,156.288002 166.944498,156.899996 167.3315,157.638 C167.718502,158.376004 167.912,159.239995 167.912,160.23 C167.912,160.914003 167.822001,161.530497 167.642,162.0795 C167.461999,162.628503 167.214502,163.136998 166.8995,163.605 C166.584498,164.073002 166.224502,164.509498 165.8195,164.9145 C165.414498,165.319502 164.996002,165.719998 164.564,166.116 L160.136,170.058 L167.939,170.058 L167.939,174 L154.115,174 Z" id="2" fill="#323232"></path>
        </g>
    </g>
</svg>