<?xml version="1.0" encoding="UTF-8"?>
<svg width="3440px" height="3440px" viewBox="0 0 3440 3440" version="1.1" xmlns="http://www.w3.org/2000/svg" xmlns:xlink="http://www.w3.org/1999/xlink">
    <!-- Generator: Sketch 48.1 (47250) - http://www.bohemiancoding.com/sketch -->
    <title>Group 4</title>
    <desc>Created with Sketch.</desc>
    <defs></defs>
    <g id="Page-1" stroke="none" stroke-width="1" fill="none" fill-rule="evenodd">
        <g id="Group-4" transform="translate(20.000000, 20.000000)">
            <rect id="Rectangle-4-Copy" stroke="#3E5752" stroke-width="40" fill="#CAC3A7" x="0" y="0" width="3400" height="3400"></rect>
            <rect id="Rectangle-4" stroke="#FFFFFF" stroke-width="20" x="190" y="190" width="3020" height="3020"></rect>
            <path d="M200,400.5 L3204,400.5" id="Line" stroke="#FFFFFF" stroke-width="10" stroke-linecap="square"></path>
            <path d="M200,600.576923 L3204,600.576923" id="Line-Copy" stroke="#FFFFFF" stroke-width="10" stroke-linecap="square"></path>
            <path d="M200,800.653846 L3204,800.653846" id="Line-Copy-2" stroke="#FFFFFF" stroke-width="10" stroke-linecap="square"></path>
            <path d="M200,1000.73077 L3204,1000.73077" id="Line-Copy-3" stroke="#FFFFFF" stroke-width="10" stroke-linecap="square"></path>
            <path d="M200,1200.80769 L3204,1200.80769" id="Line-Copy-4" stroke="#FFFFFF" stroke-width="10" stroke-linecap="square"></path>
            <path d="M200,1400.88462 L3204,1400.88462" id="Line-Copy-5" stroke="#FFFFFF" stroke-width="10" stroke-linecap="square"></path>
            <path d="M200,1600.96154 L3204,1600.96154" id="Line-Copy-6" stroke="#FFFFFF" stroke-width="10" stroke-linecap="square"></path>
            <path d="M200,1801.03846 L3204,1801.03846" id="Line-Copy-7" stroke="#FFFFFF" stroke-width="10" stroke-linecap="square"></path>
            <path d="M200,2001.11538 L3204,2001.11538" id="Line-Copy-8" stroke="#FFFFFF" stroke-width="10" stroke-linecap="square"></path>
            <path d="M200,2201.19231 L3204,2201.19231" id="Line-Copy-9" stroke="#FFFFFF" stroke-width="10" stroke-linecap="square"></path>
            <path d="M200,2401.26923 L3204,2401.26923" id="Line-Copy-10" stroke="#FFFFFF" stroke-width="10" stroke-linecap="square"></path>
            <path d="M200,2601.34615 L3204,2601.34615" id="Line-Copy-11" stroke="#FFFFFF" stroke-width="10" stroke-linecap="square"></path>
            <path d="M200,2801.42308 L3204,2801.42308" id="Line-Copy-12" stroke="#FFFFFF" stroke-width="10" stroke-linecap="square"></path>
            <path d="M200,3001.5 L3204,3001.5" id="Line-Copy-13" stroke="#FFFFFF" stroke-width="10" stroke-linecap="square"></path>
            <path d="M1499.5,1700 L4503.5,1700" id="Line" stroke="#FFFFFF" stroke-width="10" stroke-linecap="square" transform="translate(3001.500000, 1700.000000) rotate(-270.000000) translate(-3001.500000, -1700.000000) "></path>
            <path d="M1299.42308,1700 L4303.42308,1700" id="Line-Copy" stroke="#FFFFFF" stroke-width="10" stroke-linecap="square" transform="translate(2801.423077, 1700.000000) rotate(-270.000000) translate(-2801.423077, -1700.000000) "></path>
            <path d="M1099.34615,1700 L4103.34615,1700" id="Line-Copy-2" stroke="#FFFFFF" stroke-width="10" stroke-linecap="square" transform="translate(2601.346154, 1700.000000) rotate(-270.000000) translate(-2601.346154, -1700.000000) "></path>
            <path d="M899.269231,1700 L3903.26923,1700" id="Line-Copy-3" stroke="#FFFFFF" stroke-width="10" stroke-linecap="square" transform="translate(2401.269231, 1700.000000) rotate(-270.000000) translate(-2401.269231, -1700.000000) "></path>
            <path d="M699.192308,1700 L3703.19231,1700" id="Line-Copy-4" stroke="#FFFFFF" stroke-width="10" stroke-linecap="square" transform="translate(2201.192308, 1700.000000) rotate(-270.000000) translate(-2201.192308, -1700.000000) "></path>
            <path d="M499.115385,1700 L3503.11538,1700" id="Line-Copy-5" stroke="#FFFFFF" stroke-width="10" stroke-linecap="square" transform="translate(2001.115385, 1700.000000) rotate(-270.000000) translate(-2001.115385, -1700.000000) "></path>
            <path d="M299.038462,1700 L3303.03846,1700" id="Line-Copy-6" stroke="#FFFFFF" stroke-width="10" stroke-linecap="square" transform="translate(1801.038462, 1700.000000) rotate(-270.000000) translate(-1801.038462, -1700.000000) "></path>
            <path d="M98.9615385,1700 L3102.96154,1700" id="Line-Copy-7" stroke="#FFFFFF" stroke-width="10" stroke-linecap="square" transform="translate(1600.961538, 1700.000000) rotate(-270.000000) translate(-1600.961538, -1700.000000) "></path>
            <path d="M-101.115385,1700 L2902.88462,1700" id="Line-Copy-8" stroke="#FFFFFF" stroke-width="10" stroke-linecap="square" transform="translate(1400.884615, 1700.000000) rotate(-270.000000) translate(-1400.884615, -1700.000000) "></path>
            <path d="M-301.192308,1700 L2702.80769,1700" id="Line-Copy-9" stroke="#FFFFFF" stroke-width="10" stroke-linecap="square" transform="translate(1200.807692, 1700.000000) rotate(-270.000000) translate(-1200.807692, -1700.000000) "></path>
            <path d="M-501.269231,1700 L2502.73077,1700" id="Line-Copy-10" stroke="#FFFFFF" stroke-width="10" stroke-linecap="square" transform="translate(1000.730769, 1700.000000) rotate(-270.000000) translate(-1000.730769, -1700.000000) "></path>
            <path d="M-701.346154,1700 L2302.65385,1700" id="Line-Copy-11" stroke="#FFFFFF" stroke-width="10" stroke-linecap="square" transform="translate(800.653846, 1700.000000) rotate(-270.000000) translate(-800.653846, -1700.000000) "></path>
            <path d="M-901.423077,1700 L2102.57692,1700" id="Line-Copy-12" stroke="#FFFFFF" stroke-width="10" stroke-linecap="square" transform="translate(600.576923, 1700.000000) rotate(-270.000000) translate(-600.576923, -1700.000000) "></path>
            <path d="M-1101.5,1700 L1902.5,1700" id="Line-Copy-13" stroke="#FFFFFF" stroke-width="10" stroke-linecap="square" transform="translate(400.500000, 1700.000000) rotate(-270.000000) translate(-400.500000, -1700.000000) "></path>
        </g>
    </g>
</svg>