<?xml version="1.0" encoding="UTF-8"?>
<svg width="200px" height="200px" viewBox="0 0 200 200" version="1.1" xmlns="http://www.w3.org/2000/svg" xmlns:xlink="http://www.w3.org/1999/xlink">
    <!-- Generator: Sketch 48.1 (47250) - http://www.bohemiancoding.com/sketch -->
    <title>Letter</title>
    <desc>Created with Sketch.</desc>
    <defs>
        <path d="M31.2031493,13.009856 C109.512043,12.3366187 156.990665,12 173.639015,12 C187.857797,12 188,21.0215117 188,21.719 C188,75.146 188,128.573 188,182 L188,182 C188,186.418278 184.418278,190 180,190 C129.427718,190 78.8554368,190 28.2831552,190 C15.2587744,190 14,185.711829 14,171.948486 C14,154.601089 17.0979225,104.091191 23.2937675,20.4187921 L23.2937624,20.4187917 C23.6011602,16.267509 27.0406547,13.0456418 31.2031493,13.009856 Z" id="path-1"></path>
        <filter x="-0.6%" y="-0.6%" width="102.3%" height="102.2%" filterUnits="objectBoundingBox" id="filter-2">
            <feOffset dx="2" dy="2" in="SourceAlpha" result="shadowOffsetOuter1"></feOffset>
            <feColorMatrix values="0 0 0 0 0.00996492347   0 0 0 0 0.00996492347   0 0 0 0 0.00996492347  0 0 0 0.249348958 0" type="matrix" in="shadowOffsetOuter1"></feColorMatrix>
        </filter>
    </defs>
    <g id="Symbol-K" stroke="none" stroke-width="1" fill="none" fill-rule="evenodd">
        <g id="Letter">
            <g id="Rectangle-Copy">
                <use fill="black" fill-opacity="1" filter="url(#filter-2)" xlink:href="#path-1"></use>
                <use fill="#DA8D63" fill-rule="evenodd" xlink:href="#path-1"></use>
            </g>
            <rect id="Rectangle" fill="#FFA777" x="14" y="12" width="169" height="171" rx="8"></rect>
            <polygon id="K" fill="#323232" points="121.075 147 81.625 98.1 81.325 98.1 81.325 147 56.125 147 56.125 40.8 81.325 40.8 81.325 84 81.775 84 119.725 40.8 151.825 40.8 106.075 89.7 154.525 147"></polygon>
            <path d="M167.993,167.682 C167.993,168.852006 167.786002,169.864496 167.372,170.7195 C166.957998,171.574504 166.404503,172.280997 165.7115,172.839 C165.018497,173.397003 164.231004,173.815499 163.349,174.0945 C162.466996,174.373501 161.558005,174.513 160.622,174.513 C159.757996,174.513 158.934504,174.400501 158.1515,174.1755 C157.368496,173.950499 156.657503,173.631002 156.0185,173.217 C155.379497,172.802998 154.830502,172.294503 154.3715,171.6915 C153.912498,171.088497 153.575001,170.409004 153.359,169.653 L157.49,168.384 C157.688001,169.050003 158.061497,169.598998 158.6105,170.031 C159.159503,170.463002 159.811996,170.679 160.568,170.679 C161.342004,170.679 162.012497,170.445002 162.5795,169.977 C163.146503,169.508998 163.43,168.816005 163.43,167.898 C163.43,167.339997 163.313001,166.872002 163.079,166.494 C162.844999,166.115998 162.543502,165.814501 162.1745,165.5895 C161.805498,165.364499 161.387002,165.207 160.919,165.117 C160.450998,165.027 159.983002,164.982 159.515,164.982 C158.830997,164.982 158.052504,165.058499 157.1795,165.2115 C156.306496,165.364501 155.528003,165.566999 154.844,165.819 L155.303,154.884 L167.021,154.884 L167.021,158.772 L159.326,158.772 L159.164,161.796 C159.452001,161.724 159.771498,161.6745 160.1225,161.6475 C160.473502,161.6205 160.792999,161.607 161.081,161.607 C162.035005,161.607 162.934996,161.732999 163.781,161.985 C164.627004,162.237001 165.360497,162.619497 165.9815,163.1325 C166.602503,163.645503 167.092998,164.279996 167.453,165.036 C167.813002,165.792004 167.993,166.673995 167.993,167.682 Z" id="5" fill="#323232"></path>
        </g>
    </g>
</svg>