<?xml version="1.0" encoding="UTF-8"?>
<svg width="200px" height="200px" viewBox="0 0 200 200" version="1.1" xmlns="http://www.w3.org/2000/svg" xmlns:xlink="http://www.w3.org/1999/xlink">
    <!-- Generator: Sketch 48.1 (47250) - http://www.bohemiancoding.com/sketch -->
    <title>Letter</title>
    <desc>Created with Sketch.</desc>
    <defs>
        <path d="M31.2031493,13.009856 C109.512043,12.3366187 156.990665,12 173.639015,12 C187.857797,12 188,21.0215117 188,21.719 C188,75.146 188,128.573 188,182 L188,182 C188,186.418278 184.418278,190 180,190 C129.427718,190 78.8554368,190 28.2831552,190 C15.2587744,190 14,185.711829 14,171.948486 C14,154.601089 17.0979225,104.091191 23.2937675,20.4187921 L23.2937624,20.4187917 C23.6011602,16.267509 27.0406547,13.0456418 31.2031493,13.009856 Z" id="path-1"></path>
        <filter x="-0.6%" y="-0.6%" width="102.3%" height="102.2%" filterUnits="objectBoundingBox" id="filter-2">
            <feOffset dx="2" dy="2" in="SourceAlpha" result="shadowOffsetOuter1"></feOffset>
            <feColorMatrix values="0 0 0 0 0.00996492347   0 0 0 0 0.00996492347   0 0 0 0 0.00996492347  0 0 0 0.249348958 0" type="matrix" in="shadowOffsetOuter1"></feColorMatrix>
        </filter>
    </defs>
    <g id="Symbol-O" stroke="none" stroke-width="1" fill="none" fill-rule="evenodd">
        <g id="Letter">
            <g id="Rectangle-Copy">
                <use fill="black" fill-opacity="1" filter="url(#filter-2)" xlink:href="#path-1"></use>
                <use fill="#DA8D63" fill-rule="evenodd" xlink:href="#path-1"></use>
            </g>
            <rect id="Rectangle" fill="#FFA777" x="14" y="12" width="169" height="171" rx="8"></rect>
            <path d="M156.325,93.45 C156.325,101.850042 154.875014,109.524965 151.975,116.475 C149.074985,123.425035 145.050026,129.374975 139.9,134.325 C134.749974,139.275025 128.625036,143.099986 121.525,145.8 C114.424965,148.500013 106.725042,149.85 98.425,149.85 C90.1249585,149.85 82.4500352,148.500013 75.4,145.8 C68.3499647,143.099986 62.2500258,139.275025 57.1,134.325 C51.9499743,129.374975 47.9250145,123.425035 45.025,116.475 C42.1249855,109.524965 40.675,101.850042 40.675,93.45 C40.675,84.9499575 42.1249855,77.2750343 45.025,70.425 C47.9250145,63.5749658 51.9499743,57.750024 57.1,52.95 C62.2500258,48.149976 68.3499647,44.450013 75.4,41.85 C82.4500352,39.249987 90.1249585,37.95 98.425,37.95 C106.725042,37.95 114.424965,39.249987 121.525,41.85 C128.625036,44.450013 134.749974,48.149976 139.9,52.95 C145.050026,57.750024 149.074985,63.5749658 151.975,70.425 C154.875014,77.2750343 156.325,84.9499575 156.325,93.45 Z M128.875,93.45 C128.875,88.849977 128.125007,84.55002 126.625,80.55 C125.124993,76.54998 123.050013,73.1250143 120.4,70.275 C117.749987,67.4249858 114.550019,65.1750083 110.8,63.525 C107.049981,61.8749918 102.925023,61.05 98.425,61.05 C93.9249775,61.05 89.8250185,61.8749918 86.125,63.525 C82.4249815,65.1750083 79.2250135,67.4249858 76.525,70.275 C73.8249865,73.1250143 71.7500073,76.54998 70.3,80.55 C68.8499928,84.55002 68.125,88.849977 68.125,93.45 C68.125,98.250024 68.8749925,102.67498 70.375,106.725 C71.8750075,110.77502 73.9499867,114.249986 76.6,117.15 C79.2500132,120.050015 82.4249815,122.324992 86.125,123.975 C89.8250185,125.625008 93.9249775,126.45 98.425,126.45 C102.925023,126.45 107.024981,125.625008 110.725,123.975 C114.425018,122.324992 117.624987,120.050015 120.325,117.15 C123.025014,114.249986 125.124993,110.77502 126.625,106.725 C128.125007,102.67498 128.875,98.250024 128.875,93.45 Z" id="O" fill="#323232"></path>
            <polygon id="1" fill="#323232" points="159.92 174 159.92 159.96 156.356 162.714 154.007 159.501 160.298 154.884 164.456 154.884 164.456 174"></polygon>
        </g>
    </g>
</svg>