<?xml version="1.0" encoding="UTF-8"?>
<svg width="200px" height="200px" viewBox="0 0 200 200" version="1.1" xmlns="http://www.w3.org/2000/svg" xmlns:xlink="http://www.w3.org/1999/xlink">
    <!-- Generator: Sketch 48.1 (47250) - http://www.bohemiancoding.com/sketch -->
    <title>Letter</title>
    <desc>Created with Sketch.</desc>
    <defs>
        <path d="M31.2031493,13.009856 C109.512043,12.3366187 156.990665,12 173.639015,12 C187.857797,12 188,21.0215117 188,21.719 C188,75.146 188,128.573 188,182 L188,182 C188,186.418278 184.418278,190 180,190 C129.427718,190 78.8554368,190 28.2831552,190 C15.2587744,190 14,185.711829 14,171.948486 C14,154.601089 17.0979225,104.091191 23.2937675,20.4187921 L23.2937624,20.4187917 C23.6011602,16.267509 27.0406547,13.0456418 31.2031493,13.009856 Z" id="path-1"></path>
        <filter x="-0.6%" y="-0.6%" width="102.3%" height="102.2%" filterUnits="objectBoundingBox" id="filter-2">
            <feOffset dx="2" dy="2" in="SourceAlpha" result="shadowOffsetOuter1"></feOffset>
            <feColorMatrix values="0 0 0 0 0.00996492347   0 0 0 0 0.00996492347   0 0 0 0 0.00996492347  0 0 0 0.249348958 0" type="matrix" in="shadowOffsetOuter1"></feColorMatrix>
        </filter>
    </defs>
    <g id="Symbol-Q" stroke="none" stroke-width="1" fill="none" fill-rule="evenodd">
        <g id="Letter">
            <g id="Rectangle-Copy">
                <use fill="black" fill-opacity="1" filter="url(#filter-2)" xlink:href="#path-1"></use>
                <use fill="#DA8D63" fill-rule="evenodd" xlink:href="#path-1"></use>
            </g>
            <rect id="Rectangle" fill="#FFA777" x="14" y="12" width="169" height="171" rx="8"></rect>
            <path d="M96.325,147 C87.924958,147 80.225035,145.800012 73.225,143.4 C66.224965,140.999988 60.2500248,137.475023 55.3,132.825 C50.3499753,128.174977 46.5000138,122.475034 43.75,115.725 C40.9999863,108.974966 39.625,101.250044 39.625,92.55 C39.625,84.4499595 41.0749855,77.0500335 43.975,70.35 C46.8750145,63.6499665 50.8999743,57.900024 56.05,53.1 C61.2000258,48.299976 67.2999648,44.5750133 74.35,41.925 C81.4000353,39.2749867 89.024959,37.95 97.225,37.95 C105.425041,37.95 113.024965,39.2749867 120.025,41.925 C127.025035,44.5750133 133.074974,48.2749763 138.175,53.025 C143.275025,57.7750238 147.249986,63.4749667 150.1,70.125 C152.950014,76.7750333 154.375,84.09996 154.375,92.1 C154.375,96.2000205 153.925005,100.024982 153.025,103.575 C152.124996,107.125018 150.925008,110.349986 149.425,113.25 C147.924993,116.150014 146.225009,118.724989 144.325,120.975 C142.424991,123.225011 140.52501,125.099992 138.625,126.6 L138.625,127.05 L160.975,126.6 L160.975,147 L96.325,147 Z M127.225,92.85 C127.225,88.249977 126.500007,84.0000195 125.05,80.1 C123.599993,76.1999805 121.550013,72.850014 118.9,70.05 C116.249987,67.249986 113.075018,65.0750078 109.375,63.525 C105.674982,61.9749922 101.625022,61.2 97.225,61.2 C92.9249785,61.2 88.9500183,61.9749922 85.3,63.525 C81.6499818,65.0750078 78.4750135,67.249986 75.775,70.05 C73.0749865,72.850014 70.9750075,76.1999805 69.475,80.1 C67.9749925,84.0000195 67.225,88.249977 67.225,92.85 C67.225,97.650024 67.9499928,102.02498 69.4,105.975 C70.8500073,109.92502 72.8999868,113.324986 75.55,116.175 C78.2000133,119.025014 81.3499818,121.224992 85,122.775 C88.6500183,124.325008 92.674978,125.1 97.075,125.1 C101.375022,125.1 105.374981,124.325008 109.075,122.775 C112.775018,121.224992 115.974986,119.025014 118.675,116.175 C121.375014,113.324986 123.474993,109.92502 124.975,105.975 C126.475008,102.02498 127.225,97.650024 127.225,92.85 Z" id="Q" fill="#323232"></path>
            <path d="M151.199,174 L151.199,159.96 L147.635,162.714 L145.286,159.501 L151.577,154.884 L155.735,154.884 L155.735,174 L151.199,174 Z M177.2,164.388 C177.2,165.738007 177.065001,167.024994 176.795,168.249 C176.524999,169.473006 176.093003,170.548495 175.499,171.4755 C174.904997,172.402505 174.135505,173.140497 173.1905,173.6895 C172.245495,174.238503 171.098007,174.513 169.748,174.513 C168.397993,174.513 167.246005,174.238503 166.292,173.6895 C165.337995,173.140497 164.559503,172.402505 163.9565,171.4755 C163.353497,170.548495 162.917001,169.473006 162.647,168.249 C162.376999,167.024994 162.242,165.738007 162.242,164.388 C162.242,163.037993 162.376999,161.755506 162.647,160.5405 C162.917001,159.325494 163.353497,158.263505 163.9565,157.3545 C164.559503,156.445495 165.337995,155.721003 166.292,155.181 C167.246005,154.640997 168.397993,154.371 169.748,154.371 C171.098007,154.371 172.245495,154.640997 173.1905,155.181 C174.135505,155.721003 174.904997,156.445495 175.499,157.3545 C176.093003,158.263505 176.524999,159.325494 176.795,160.5405 C177.065001,161.755506 177.2,163.037993 177.2,164.388 Z M172.556,164.388 C172.556,163.793997 172.52,163.137004 172.448,162.417 C172.376,161.696996 172.241001,161.026503 172.043,160.4055 C171.844999,159.784497 171.561502,159.262502 171.1925,158.8395 C170.823498,158.416498 170.342003,158.205 169.748,158.205 C169.153997,158.205 168.668002,158.416498 168.29,158.8395 C167.911998,159.262502 167.619501,159.784497 167.4125,160.4055 C167.205499,161.026503 167.066,161.696996 166.994,162.417 C166.922,163.137004 166.886,163.793997 166.886,164.388 C166.886,165.000003 166.922,165.670496 166.994,166.3995 C167.066,167.128504 167.205499,167.803497 167.4125,168.4245 C167.619501,169.045503 167.911998,169.567498 168.29,169.9905 C168.668002,170.413502 169.153997,170.625 169.748,170.625 C170.342003,170.625 170.823498,170.413502 171.1925,169.9905 C171.561502,169.567498 171.844999,169.045503 172.043,168.4245 C172.241001,167.803497 172.376,167.128504 172.448,166.3995 C172.52,165.670496 172.556,165.000003 172.556,164.388 Z" id="10" fill="#323232"></path>
        </g>
    </g>
</svg>