<?xml version="1.0" encoding="UTF-8"?>
<svg width="200px" height="200px" viewBox="0 0 200 200" version="1.1" xmlns="http://www.w3.org/2000/svg" xmlns:xlink="http://www.w3.org/1999/xlink">
    <!-- Generator: Sketch 48.1 (47250) - http://www.bohemiancoding.com/sketch -->
    <title>Letter</title>
    <desc>Created with Sketch.</desc>
    <defs>
        <path d="M31.2031493,13.009856 C109.512043,12.3366187 156.990665,12 173.639015,12 C187.857797,12 188,21.0215117 188,21.719 C188,75.146 188,128.573 188,182 L188,182 C188,186.418278 184.418278,190 180,190 C129.427718,190 78.8554368,190 28.2831552,190 C15.2587744,190 14,185.711829 14,171.948486 C14,154.601089 17.0979225,104.091191 23.2937675,20.4187921 L23.2937624,20.4187917 C23.6011602,16.267509 27.0406547,13.0456418 31.2031493,13.009856 Z" id="path-1"></path>
        <filter x="-0.6%" y="-0.6%" width="102.3%" height="102.2%" filterUnits="objectBoundingBox" id="filter-2">
            <feOffset dx="2" dy="2" in="SourceAlpha" result="shadowOffsetOuter1"></feOffset>
            <feColorMatrix values="0 0 0 0 0.00996492347   0 0 0 0 0.00996492347   0 0 0 0 0.00996492347  0 0 0 0.249348958 0" type="matrix" in="shadowOffsetOuter1"></feColorMatrix>
        </filter>
    </defs>
    <g id="Symbol-R" stroke="none" stroke-width="1" fill="none" fill-rule="evenodd">
        <g id="Letter">
            <g id="Rectangle-Copy">
                <use fill="black" fill-opacity="1" filter="url(#filter-2)" xlink:href="#path-1"></use>
                <use fill="#DA8D63" fill-rule="evenodd" xlink:href="#path-1"></use>
            </g>
            <rect id="Rectangle" fill="#FFA777" x="14" y="12" width="169" height="171" rx="8"></rect>
            <path d="M116.575,147 L93.625,104.85 L84.925,104.85 L84.925,147 L59.725,147 L59.725,40.8 L100.225,40.8 C105.325025,40.8 110.299976,41.3249948 115.15,42.375 C120.000024,43.4250052 124.349981,45.1999875 128.2,47.7 C132.050019,50.2000125 135.124989,53.4999795 137.425,57.6 C139.725011,61.7000205 140.875,66.7999695 140.875,72.9 C140.875,80.100036 138.925019,86.1499755 135.025,91.05 C131.12498,95.9500245 125.725034,99.4499895 118.825,101.55 L146.575,147 L116.575,147 Z M115.525,73.35 C115.525,70.8499875 115.000005,68.8250077 113.95,67.275 C112.899995,65.7249923 111.550008,64.5250043 109.9,63.675 C108.249992,62.8249957 106.40001,62.2500015 104.35,61.95 C102.29999,61.6499985 100.325009,61.5 98.425,61.5 L84.775,61.5 L84.775,86.25 L96.925,86.25 C99.0250105,86.25 101.174989,86.0750017 103.375,85.725 C105.575011,85.3749983 107.574991,84.7500045 109.375,83.85 C111.175009,82.9499955 112.649994,81.6500085 113.8,79.95 C114.950006,78.2499915 115.525,76.0500135 115.525,73.35 Z" id="R" fill="#323232"></path>
            <polygon id="1" fill="#323232" points="159.92 174 159.92 159.96 156.356 162.714 154.007 159.501 160.298 154.884 164.456 154.884 164.456 174"></polygon>
        </g>
    </g>
</svg>