<?xml version="1.0" encoding="UTF-8"?>
<svg width="200px" height="200px" viewBox="0 0 200 200" version="1.1" xmlns="http://www.w3.org/2000/svg" xmlns:xlink="http://www.w3.org/1999/xlink">
    <!-- Generator: Sketch 48.1 (47250) - http://www.bohemiancoding.com/sketch -->
    <title>Letter</title>
    <desc>Created with Sketch.</desc>
    <defs>
        <path d="M31.2031493,13.009856 C109.512043,12.3366187 156.990665,12 173.639015,12 C187.857797,12 188,21.0215117 188,21.719 C188,75.146 188,128.573 188,182 L188,182 C188,186.418278 184.418278,190 180,190 C129.427718,190 78.8554368,190 28.2831552,190 C15.2587744,190 14,185.711829 14,171.948486 C14,154.601089 17.0979225,104.091191 23.2937675,20.4187921 L23.2937624,20.4187917 C23.6011602,16.267509 27.0406547,13.0456418 31.2031493,13.009856 Z" id="path-1"></path>
        <filter x="-0.6%" y="-0.6%" width="102.3%" height="102.2%" filterUnits="objectBoundingBox" id="filter-2">
            <feOffset dx="2" dy="2" in="SourceAlpha" result="shadowOffsetOuter1"></feOffset>
            <feColorMatrix values="0 0 0 0 0.00996492347   0 0 0 0 0.00996492347   0 0 0 0 0.00996492347  0 0 0 0.249348958 0" type="matrix" in="shadowOffsetOuter1"></feColorMatrix>
        </filter>
    </defs>
    <g id="Symbol-S" stroke="none" stroke-width="1" fill="none" fill-rule="evenodd">
        <g id="Letter">
            <g id="Rectangle-Copy">
                <use fill="black" fill-opacity="1" filter="url(#filter-2)" xlink:href="#path-1"></use>
                <use fill="#DA8D63" fill-rule="evenodd" xlink:href="#path-1"></use>
            </g>
            <rect id="Rectangle" fill="#FFA777" x="14" y="12" width="169" height="171" rx="8"></rect>
            <path d="M121.225,68.4 C119.024989,65.599986 116.150018,63.3750083 112.6,61.725 C109.049982,60.0749918 105.625017,59.25 102.325,59.25 C100.624991,59.25 98.9000087,59.3999985 97.15,59.7 C95.3999912,60.0000015 93.825007,60.5749957 92.425,61.425 C91.024993,62.2750042 89.8500048,63.3749933 88.9,64.725 C87.9499953,66.0750068 87.475,67.7999895 87.475,69.9 C87.475,71.700009 87.8499962,73.199994 88.6,74.4 C89.3500037,75.600006 90.4499928,76.6499955 91.9,77.55 C93.3500073,78.4500045 95.07499,79.2749963 97.075,80.025 C99.07501,80.7750037 101.324988,81.549996 103.825,82.35 C107.425018,83.550006 111.174981,84.8749928 115.075,86.325 C118.97502,87.7750073 122.524984,89.699988 125.725,92.1 C128.925016,94.500012 131.57499,97.4749822 133.675,101.025 C135.775011,104.575018 136.825,108.999973 136.825,114.3 C136.825,120.40003 135.700011,125.674978 133.45,130.125 C131.199989,134.575022 128.175019,138.249985 124.375,141.15 C120.574981,144.050015 116.225025,146.199993 111.325,147.6 C106.424976,149.000007 101.375026,149.7 96.175,149.7 C88.574962,149.7 81.2250355,148.375013 74.125,145.725 C67.0249645,143.074987 61.1250235,139.300025 56.425,134.4 L73.225,117.3 C75.825013,120.500016 79.2499787,123.174989 83.5,125.325 C87.7500213,127.475011 91.974979,128.55 96.175,128.55 C98.0750095,128.55 99.924991,128.350002 101.725,127.95 C103.525009,127.549998 105.099993,126.900005 106.45,126 C107.800007,125.099996 108.874996,123.900008 109.675,122.4 C110.475004,120.899993 110.875,119.10001 110.875,117 C110.875,114.99999 110.375005,113.300007 109.375,111.9 C108.374995,110.499993 106.950009,109.225006 105.1,108.075 C103.249991,106.924994 100.950014,105.875005 98.2,104.925 C95.4499862,103.974995 92.3250175,102.950006 88.825,101.85 C85.424983,100.749994 82.1000162,99.4500075 78.85,97.95 C75.5999838,96.4499925 72.7000128,94.5250118 70.15,92.175 C67.5999872,89.8249883 65.5500077,86.9750168 64,83.625 C62.4499923,80.2749832 61.675,76.200024 61.675,71.4 C61.675,65.4999705 62.874988,60.450021 65.275,56.25 C67.675012,52.049979 70.8249805,48.6000135 74.725,45.9 C78.6250195,43.1999865 83.0249755,41.2250063 87.925,39.975 C92.8250245,38.7249938 97.774975,38.1 102.775,38.1 C108.77503,38.1 114.899969,39.199989 121.15,41.4 C127.400031,43.600011 132.874977,46.8499785 137.575,51.15 L121.225,68.4 Z" id="S" fill="#323232"></path>
            <polygon id="1" fill="#323232" points="159.92 174 159.92 159.96 156.356 162.714 154.007 159.501 160.298 154.884 164.456 154.884 164.456 174"></polygon>
        </g>
    </g>
</svg>