<?xml version="1.0" encoding="UTF-8"?>
<svg width="200px" height="200px" viewBox="0 0 200 200" version="1.1" xmlns="http://www.w3.org/2000/svg" xmlns:xlink="http://www.w3.org/1999/xlink">
    <!-- Generator: Sketch 48.1 (47250) - http://www.bohemiancoding.com/sketch -->
    <title>Letter</title>
    <desc>Created with Sketch.</desc>
    <defs>
        <path d="M31.2031493,13.009856 C109.512043,12.3366187 156.990665,12 173.639015,12 C187.857797,12 188,21.0215117 188,21.719 C188,75.146 188,128.573 188,182 L188,182 C188,186.418278 184.418278,190 180,190 C129.427718,190 78.8554368,190 28.2831552,190 C15.2587744,190 14,185.711829 14,171.948486 C14,154.601089 17.0979225,104.091191 23.2937675,20.4187921 L23.2937624,20.4187917 C23.6011602,16.267509 27.0406547,13.0456418 31.2031493,13.009856 Z" id="path-1"></path>
        <filter x="-0.6%" y="-0.6%" width="102.3%" height="102.2%" filterUnits="objectBoundingBox" id="filter-2">
            <feOffset dx="2" dy="2" in="SourceAlpha" result="shadowOffsetOuter1"></feOffset>
            <feColorMatrix values="0 0 0 0 0.00996492347   0 0 0 0 0.00996492347   0 0 0 0 0.00996492347  0 0 0 0.249348958 0" type="matrix" in="shadowOffsetOuter1"></feColorMatrix>
        </filter>
    </defs>
    <g id="Symbol-U" stroke="none" stroke-width="1" fill="none" fill-rule="evenodd">
        <g id="Letter">
            <g id="Rectangle-Copy">
                <use fill="black" fill-opacity="1" filter="url(#filter-2)" xlink:href="#path-1"></use>
                <use fill="#DA8D63" fill-rule="evenodd" xlink:href="#path-1"></use>
            </g>
            <rect id="Rectangle" fill="#FFA777" x="14" y="12" width="169" height="171" rx="8"></rect>
            <path d="M144.1,106.95 C144.1,113.350032 143.025011,119.174974 140.875,124.425 C138.724989,129.675026 135.65002,134.174981 131.65,137.925 C127.64998,141.675019 122.825028,144.599989 117.175,146.7 C111.524972,148.80001 105.250034,149.85 98.35,149.85 C91.349965,149.85 85.050028,148.80001 79.45,146.7 C73.849972,144.599989 69.1000195,141.675019 65.2,137.925 C61.2999805,134.174981 58.3000105,129.675026 56.2,124.425 C54.0999895,119.174974 53.05,113.350032 53.05,106.95 L53.05,40.8 L78.55,40.8 L78.55,104.85 C78.55,107.750014 78.9249962,110.499987 79.675,113.1 C80.4250038,115.700013 81.5749922,118.02499 83.125,120.075 C84.6750077,122.12501 86.7249872,123.749994 89.275,124.95 C91.8250127,126.150006 94.899982,126.75 98.5,126.75 C102.100018,126.75 105.174987,126.150006 107.725,124.95 C110.275013,123.749994 112.349992,122.12501 113.95,120.075 C115.550008,118.02499 116.699996,115.700013 117.4,113.1 C118.100003,110.499987 118.45,107.750014 118.45,104.85 L118.45,40.8 L144.1,40.8 L144.1,106.95 Z" id="U" fill="#323232"></path>
            <polygon id="1" fill="#323232" points="159.92 174 159.92 159.96 156.356 162.714 154.007 159.501 160.298 154.884 164.456 154.884 164.456 174"></polygon>
        </g>
    </g>
</svg>