<?xml version="1.0" encoding="UTF-8"?>
<svg width="200px" height="200px" viewBox="0 0 200 200" version="1.1" xmlns="http://www.w3.org/2000/svg" xmlns:xlink="http://www.w3.org/1999/xlink">
    <!-- Generator: Sketch 48.1 (47250) - http://www.bohemiancoding.com/sketch -->
    <title>Letter</title>
    <desc>Created with Sketch.</desc>
    <defs>
        <path d="M31.2031493,13.009856 C109.512043,12.3366187 156.990665,12 173.639015,12 C187.857797,12 188,21.0215117 188,21.719 C188,75.146 188,128.573 188,182 L188,182 C188,186.418278 184.418278,190 180,190 C129.427718,190 78.8554368,190 28.2831552,190 C15.2587744,190 14,185.711829 14,171.948486 C14,154.601089 17.0979225,104.091191 23.2937675,20.4187921 L23.2937624,20.4187917 C23.6011602,16.267509 27.0406547,13.0456418 31.2031493,13.009856 Z" id="path-1"></path>
        <filter x="-0.6%" y="-0.6%" width="102.3%" height="102.2%" filterUnits="objectBoundingBox" id="filter-2">
            <feOffset dx="2" dy="2" in="SourceAlpha" result="shadowOffsetOuter1"></feOffset>
            <feColorMatrix values="0 0 0 0 0.00996492347   0 0 0 0 0.00996492347   0 0 0 0 0.00996492347  0 0 0 0.249348958 0" type="matrix" in="shadowOffsetOuter1"></feColorMatrix>
        </filter>
    </defs>
    <g id="Symbol-X" stroke="none" stroke-width="1" fill="none" fill-rule="evenodd">
        <g id="Letter">
            <g id="Rectangle-Copy">
                <use fill="black" fill-opacity="1" filter="url(#filter-2)" xlink:href="#path-1"></use>
                <use fill="#DA8D63" fill-rule="evenodd" xlink:href="#path-1"></use>
            </g>
            <rect id="Rectangle" fill="#FFA777" x="14" y="12" width="169" height="171" rx="8"></rect>
            <polygon id="X" fill="#323232" points="120.775 147 97.525 109.5 75.175 147 44.575 147 81.775 90.9 47.575 40.8 78.475 40.8 98.275 73.8 117.775 40.8 147.625 40.8 114.025 90.9 152.425 147"></polygon>
            <path d="M168.182,168.546 C168.182,169.554005 167.984002,170.431496 167.588,171.1785 C167.191998,171.925504 166.665503,172.546498 166.0085,173.0415 C165.351497,173.536502 164.586504,173.905499 163.7135,174.1485 C162.840496,174.391501 161.936005,174.513 161,174.513 C160.045995,174.513 159.137004,174.391501 158.273,174.1485 C157.408996,173.905499 156.648503,173.541002 155.9915,173.055 C155.334497,172.568998 154.808002,171.952504 154.412,171.2055 C154.015998,170.458496 153.818,169.581005 153.818,168.573 C153.818,167.996997 153.907999,167.461502 154.088,166.9665 C154.268001,166.471498 154.515498,166.030502 154.8305,165.6435 C155.145502,165.256498 155.509998,164.923501 155.924,164.6445 C156.338002,164.365499 156.778998,164.154001 157.247,164.01 L157.247,163.956 C156.418996,163.649998 155.726003,163.150503 155.168,162.4575 C154.609997,161.764497 154.331,160.887005 154.331,159.825 C154.331,158.942996 154.510998,158.160003 154.871,157.476 C155.231002,156.791997 155.716997,156.220502 156.329,155.7615 C156.941003,155.302498 157.651996,154.956001 158.462,154.722 C159.272004,154.487999 160.117996,154.371 161,154.371 C161.882004,154.371 162.723496,154.483499 163.5245,154.7085 C164.325504,154.933501 165.031997,155.270998 165.644,155.721 C166.256003,156.171002 166.746498,156.733497 167.1155,157.4085 C167.484502,158.083503 167.669,158.861996 167.669,159.744 C167.669,160.806005 167.399003,161.696996 166.859,162.417 C166.318997,163.137004 165.617004,163.640999 164.753,163.929 L164.753,164.01 C165.239002,164.154001 165.688998,164.365499 166.103,164.6445 C166.517002,164.923501 166.876998,165.256498 167.183,165.6435 C167.489002,166.030502 167.731999,166.471498 167.912,166.9665 C168.092001,167.461502 168.182,167.987997 168.182,168.546 Z M163.295,160.068 C163.295,159.437997 163.070002,158.916002 162.62,158.502 C162.169998,158.087998 161.630003,157.881 161,157.881 C160.315997,157.881 159.767002,158.087998 159.353,158.502 C158.938998,158.916002 158.732,159.437997 158.732,160.068 C158.732,160.680003 158.934498,161.210998 159.3395,161.661 C159.744502,162.111002 160.297996,162.336 161,162.336 C161.666003,162.336 162.214998,162.111002 162.647,161.661 C163.079002,161.210998 163.295,160.680003 163.295,160.068 Z M163.646,168.384 C163.646,167.645996 163.398502,167.029502 162.9035,166.5345 C162.408498,166.039498 161.774004,165.792 161,165.792 C160.207996,165.792 159.564502,166.034998 159.0695,166.521 C158.574498,167.007002 158.327,167.627996 158.327,168.384 C158.327,169.158004 158.574498,169.774498 159.0695,170.2335 C159.564502,170.692502 160.207996,170.922 161,170.922 C161.792004,170.922 162.430998,170.692502 162.917,170.2335 C163.403002,169.774498 163.646,169.158004 163.646,168.384 Z" id="8" fill="#323232"></path>
        </g>
    </g>
</svg>