<?xml version="1.0" encoding="UTF-8"?>
<svg width="200px" height="200px" viewBox="0 0 200 200" version="1.1" xmlns="http://www.w3.org/2000/svg" xmlns:xlink="http://www.w3.org/1999/xlink">
    <!-- Generator: Sketch 48.1 (47250) - http://www.bohemiancoding.com/sketch -->
    <title>Letter</title>
    <desc>Created with Sketch.</desc>
    <defs>
        <path d="M31.2031493,13.009856 C109.512043,12.3366187 156.990665,12 173.639015,12 C187.857797,12 188,21.0215117 188,21.719 C188,75.146 188,128.573 188,182 L188,182 C188,186.418278 184.418278,190 180,190 C129.427718,190 78.8554368,190 28.2831552,190 C15.2587744,190 14,185.711829 14,171.948486 C14,154.601089 17.0979225,104.091191 23.2937675,20.4187921 L23.2937624,20.4187917 C23.6011602,16.267509 27.0406547,13.0456418 31.2031493,13.009856 Z" id="path-1"></path>
        <filter x="-0.6%" y="-0.6%" width="102.3%" height="102.2%" filterUnits="objectBoundingBox" id="filter-2">
            <feOffset dx="2" dy="2" in="SourceAlpha" result="shadowOffsetOuter1"></feOffset>
            <feColorMatrix values="0 0 0 0 0.00996492347   0 0 0 0 0.00996492347   0 0 0 0 0.00996492347  0 0 0 0.249348958 0" type="matrix" in="shadowOffsetOuter1"></feColorMatrix>
        </filter>
    </defs>
    <g id="Symbol-Z" stroke="none" stroke-width="1" fill="none" fill-rule="evenodd">
        <g id="Letter">
            <g id="Rectangle-Copy">
                <use fill="black" fill-opacity="1" filter="url(#filter-2)" xlink:href="#path-1"></use>
                <use fill="#DA8D63" fill-rule="evenodd" xlink:href="#path-1"></use>
            </g>
            <rect id="Rectangle" fill="#FFA777" x="14" y="12" width="169" height="171" rx="8"></rect>
            <polygon id="Z" fill="#323232" points="56.725 147 56.725 124.8 107.275 62.55 57.925 62.55 57.925 40.8 139.375 40.8 139.375 61.35 87.625 124.8 140.425 124.8 140.425 147"></polygon>
            <path d="M151.199,174 L151.199,159.96 L147.635,162.714 L145.286,159.501 L151.577,154.884 L155.735,154.884 L155.735,174 L151.199,174 Z M177.2,164.388 C177.2,165.738007 177.065001,167.024994 176.795,168.249 C176.524999,169.473006 176.093003,170.548495 175.499,171.4755 C174.904997,172.402505 174.135505,173.140497 173.1905,173.6895 C172.245495,174.238503 171.098007,174.513 169.748,174.513 C168.397993,174.513 167.246005,174.238503 166.292,173.6895 C165.337995,173.140497 164.559503,172.402505 163.9565,171.4755 C163.353497,170.548495 162.917001,169.473006 162.647,168.249 C162.376999,167.024994 162.242,165.738007 162.242,164.388 C162.242,163.037993 162.376999,161.755506 162.647,160.5405 C162.917001,159.325494 163.353497,158.263505 163.9565,157.3545 C164.559503,156.445495 165.337995,155.721003 166.292,155.181 C167.246005,154.640997 168.397993,154.371 169.748,154.371 C171.098007,154.371 172.245495,154.640997 173.1905,155.181 C174.135505,155.721003 174.904997,156.445495 175.499,157.3545 C176.093003,158.263505 176.524999,159.325494 176.795,160.5405 C177.065001,161.755506 177.2,163.037993 177.2,164.388 Z M172.556,164.388 C172.556,163.793997 172.52,163.137004 172.448,162.417 C172.376,161.696996 172.241001,161.026503 172.043,160.4055 C171.844999,159.784497 171.561502,159.262502 171.1925,158.8395 C170.823498,158.416498 170.342003,158.205 169.748,158.205 C169.153997,158.205 168.668002,158.416498 168.29,158.8395 C167.911998,159.262502 167.619501,159.784497 167.4125,160.4055 C167.205499,161.026503 167.066,161.696996 166.994,162.417 C166.922,163.137004 166.886,163.793997 166.886,164.388 C166.886,165.000003 166.922,165.670496 166.994,166.3995 C167.066,167.128504 167.205499,167.803497 167.4125,168.4245 C167.619501,169.045503 167.911998,169.567498 168.29,169.9905 C168.668002,170.413502 169.153997,170.625 169.748,170.625 C170.342003,170.625 170.823498,170.413502 171.1925,169.9905 C171.561502,169.567498 171.844999,169.045503 172.043,168.4245 C172.241001,167.803497 172.376,167.128504 172.448,166.3995 C172.52,165.670496 172.556,165.000003 172.556,164.388 Z" id="10" fill="#323232"></path>
        </g>
    </g>
</svg>